<mxfile host="Electron" modified="2023-11-27T13:00:28.232Z" agent="Mozilla/5.0 (X11; Linux x86_64) AppleWebKit/537.36 (KHTML, like Gecko) draw.io/22.1.2 Chrome/114.0.5735.289 Electron/25.9.4 Safari/537.36" etag="N-qbSAOKYzYuvfAXEvSo" version="22.1.2" type="device">
  <diagram name="Page-1" id="pA68lFtBAXW13ktey9ta">
    <mxGraphModel dx="1050" dy="731" grid="1" gridSize="10" guides="1" tooltips="1" connect="1" arrows="1" fold="1" page="1" pageScale="1" pageWidth="1200" pageHeight="1920" math="0" shadow="0">
      <root>
        <mxCell id="0" />
        <mxCell id="1" parent="0" />
        <mxCell id="7yQeqbY0_hQjCnLQt4pn-51" value="" style="rounded=0;whiteSpace=wrap;html=1;" parent="1" vertex="1">
          <mxGeometry x="100" width="800" height="700" as="geometry" />
        </mxCell>
        <mxCell id="7yQeqbY0_hQjCnLQt4pn-27" style="edgeStyle=orthogonalEdgeStyle;rounded=0;orthogonalLoop=1;jettySize=auto;html=1;exitX=0.75;exitY=0.1;exitDx=0;exitDy=0;exitPerimeter=0;entryX=0;entryY=0.5;entryDx=0;entryDy=0;startArrow=classicThin;startFill=1;" parent="1" source="7yQeqbY0_hQjCnLQt4pn-1" target="7yQeqbY0_hQjCnLQt4pn-7" edge="1">
          <mxGeometry relative="1" as="geometry">
            <Array as="points">
              <mxPoint x="163" y="170" />
            </Array>
          </mxGeometry>
        </mxCell>
        <mxCell id="7yQeqbY0_hQjCnLQt4pn-28" value="Live chat" style="edgeLabel;html=1;align=center;verticalAlign=middle;resizable=0;points=[];" parent="7yQeqbY0_hQjCnLQt4pn-27" vertex="1" connectable="0">
          <mxGeometry x="0.1334" y="2" relative="1" as="geometry">
            <mxPoint as="offset" />
          </mxGeometry>
        </mxCell>
        <mxCell id="7yQeqbY0_hQjCnLQt4pn-31" style="edgeStyle=orthogonalEdgeStyle;rounded=0;orthogonalLoop=1;jettySize=auto;html=1;exitX=1;exitY=0.3333333333333333;exitDx=0;exitDy=0;exitPerimeter=0;entryX=0;entryY=0;entryDx=0;entryDy=0;" parent="1" source="7yQeqbY0_hQjCnLQt4pn-1" target="7yQeqbY0_hQjCnLQt4pn-8" edge="1">
          <mxGeometry relative="1" as="geometry">
            <Array as="points">
              <mxPoint x="370" y="230" />
              <mxPoint x="370" y="372" />
            </Array>
          </mxGeometry>
        </mxCell>
        <mxCell id="7yQeqbY0_hQjCnLQt4pn-32" value="fasdwdwda" style="edgeLabel;html=1;align=center;verticalAlign=middle;resizable=0;points=[];" parent="7yQeqbY0_hQjCnLQt4pn-31" vertex="1" connectable="0">
          <mxGeometry x="-0.4374" y="-1" relative="1" as="geometry">
            <mxPoint as="offset" />
          </mxGeometry>
        </mxCell>
        <mxCell id="7yQeqbY0_hQjCnLQt4pn-37" style="edgeStyle=orthogonalEdgeStyle;rounded=0;orthogonalLoop=1;jettySize=auto;html=1;entryX=0.181;entryY=0.119;entryDx=0;entryDy=0;entryPerimeter=0;" parent="1" source="7yQeqbY0_hQjCnLQt4pn-1" target="7yQeqbY0_hQjCnLQt4pn-12" edge="1">
          <mxGeometry relative="1" as="geometry">
            <mxPoint x="155" y="340" as="sourcePoint" />
            <Array as="points">
              <mxPoint x="155" y="600" />
            </Array>
          </mxGeometry>
        </mxCell>
        <mxCell id="7yQeqbY0_hQjCnLQt4pn-40" value="Posts and comments" style="edgeLabel;html=1;align=center;verticalAlign=middle;resizable=0;points=[];" parent="7yQeqbY0_hQjCnLQt4pn-37" vertex="1" connectable="0">
          <mxGeometry x="0.5356" y="1" relative="1" as="geometry">
            <mxPoint as="offset" />
          </mxGeometry>
        </mxCell>
        <mxCell id="7yQeqbY0_hQjCnLQt4pn-1" value="User" style="shape=umlActor;verticalLabelPosition=bottom;verticalAlign=top;html=1;outlineConnect=0;" parent="1" vertex="1">
          <mxGeometry x="140" y="210" width="30" height="60" as="geometry" />
        </mxCell>
        <mxCell id="7yQeqbY0_hQjCnLQt4pn-15" style="edgeStyle=orthogonalEdgeStyle;rounded=0;orthogonalLoop=1;jettySize=auto;html=1;exitX=0.5;exitY=0;exitDx=0;exitDy=0;exitPerimeter=0;entryX=1;entryY=0.5;entryDx=0;entryDy=0;" parent="1" source="7yQeqbY0_hQjCnLQt4pn-2" target="7yQeqbY0_hQjCnLQt4pn-6" edge="1">
          <mxGeometry relative="1" as="geometry" />
        </mxCell>
        <mxCell id="7yQeqbY0_hQjCnLQt4pn-18" value="URL of video file" style="edgeLabel;html=1;align=center;verticalAlign=middle;resizable=0;points=[];" parent="7yQeqbY0_hQjCnLQt4pn-15" vertex="1" connectable="0">
          <mxGeometry x="0.3396" y="-1" relative="1" as="geometry">
            <mxPoint as="offset" />
          </mxGeometry>
        </mxCell>
        <mxCell id="7yQeqbY0_hQjCnLQt4pn-33" style="edgeStyle=orthogonalEdgeStyle;rounded=0;orthogonalLoop=1;jettySize=auto;html=1;exitX=0.25;exitY=0.1;exitDx=0;exitDy=0;exitPerimeter=0;entryX=1;entryY=0;entryDx=0;entryDy=0;" parent="1" source="7yQeqbY0_hQjCnLQt4pn-2" target="7yQeqbY0_hQjCnLQt4pn-7" edge="1">
          <mxGeometry relative="1" as="geometry">
            <Array as="points">
              <mxPoint x="827" y="142" />
            </Array>
          </mxGeometry>
        </mxCell>
        <mxCell id="7yQeqbY0_hQjCnLQt4pn-34" value="Live video source" style="edgeLabel;html=1;align=center;verticalAlign=middle;resizable=0;points=[];" parent="7yQeqbY0_hQjCnLQt4pn-33" vertex="1" connectable="0">
          <mxGeometry x="0.1727" y="1" relative="1" as="geometry">
            <mxPoint as="offset" />
          </mxGeometry>
        </mxCell>
        <mxCell id="7yQeqbY0_hQjCnLQt4pn-43" style="edgeStyle=orthogonalEdgeStyle;rounded=0;orthogonalLoop=1;jettySize=auto;html=1;exitX=1;exitY=1;exitDx=0;exitDy=0;exitPerimeter=0;entryX=1;entryY=1;entryDx=0;entryDy=0;" parent="1" source="7yQeqbY0_hQjCnLQt4pn-2" target="7yQeqbY0_hQjCnLQt4pn-12" edge="1">
          <mxGeometry relative="1" as="geometry">
            <Array as="points">
              <mxPoint x="850" y="658" />
            </Array>
          </mxGeometry>
        </mxCell>
        <mxCell id="7yQeqbY0_hQjCnLQt4pn-44" value="Information for creation and editing for community" style="edgeLabel;html=1;align=center;verticalAlign=middle;resizable=0;points=[];" parent="7yQeqbY0_hQjCnLQt4pn-43" vertex="1" connectable="0">
          <mxGeometry x="0.5291" y="-1" relative="1" as="geometry">
            <mxPoint as="offset" />
          </mxGeometry>
        </mxCell>
        <mxCell id="7yQeqbY0_hQjCnLQt4pn-2" value="Creator" style="shape=umlActor;verticalLabelPosition=bottom;verticalAlign=top;html=1;outlineConnect=0;" parent="1" vertex="1">
          <mxGeometry x="820" y="200" width="30" height="60" as="geometry" />
        </mxCell>
        <mxCell id="7yQeqbY0_hQjCnLQt4pn-29" style="edgeStyle=orthogonalEdgeStyle;rounded=0;orthogonalLoop=1;jettySize=auto;html=1;exitX=0.5;exitY=0;exitDx=0;exitDy=0;exitPerimeter=0;entryX=1;entryY=1;entryDx=0;entryDy=0;" parent="1" source="7yQeqbY0_hQjCnLQt4pn-3" target="7yQeqbY0_hQjCnLQt4pn-7" edge="1">
          <mxGeometry relative="1" as="geometry">
            <Array as="points">
              <mxPoint x="725" y="310" />
              <mxPoint x="482" y="310" />
            </Array>
          </mxGeometry>
        </mxCell>
        <mxCell id="7yQeqbY0_hQjCnLQt4pn-30" value="Chat moderation" style="edgeLabel;html=1;align=center;verticalAlign=middle;resizable=0;points=[];" parent="7yQeqbY0_hQjCnLQt4pn-29" vertex="1" connectable="0">
          <mxGeometry x="0.0445" y="2" relative="1" as="geometry">
            <mxPoint x="57" as="offset" />
          </mxGeometry>
        </mxCell>
        <mxCell id="7yQeqbY0_hQjCnLQt4pn-45" style="edgeStyle=orthogonalEdgeStyle;rounded=0;orthogonalLoop=1;jettySize=auto;html=1;exitX=0;exitY=1;exitDx=0;exitDy=0;exitPerimeter=0;entryX=1;entryY=0;entryDx=0;entryDy=0;" parent="1" source="7yQeqbY0_hQjCnLQt4pn-3" target="7yQeqbY0_hQjCnLQt4pn-12" edge="1">
          <mxGeometry relative="1" as="geometry">
            <Array as="points">
              <mxPoint x="710" y="602" />
            </Array>
          </mxGeometry>
        </mxCell>
        <mxCell id="7yQeqbY0_hQjCnLQt4pn-46" value="Community specific moderation" style="edgeLabel;html=1;align=center;verticalAlign=middle;resizable=0;points=[];" parent="7yQeqbY0_hQjCnLQt4pn-45" vertex="1" connectable="0">
          <mxGeometry x="0.4926" y="-1" relative="1" as="geometry">
            <mxPoint as="offset" />
          </mxGeometry>
        </mxCell>
        <mxCell id="7yQeqbY0_hQjCnLQt4pn-3" value="Moderator" style="shape=umlActor;verticalLabelPosition=bottom;verticalAlign=top;html=1;outlineConnect=0;" parent="1" vertex="1">
          <mxGeometry x="710" y="330" width="30" height="60" as="geometry" />
        </mxCell>
        <mxCell id="7yQeqbY0_hQjCnLQt4pn-6" value="Download&lt;br&gt;Videos" style="ellipse;whiteSpace=wrap;html=1;" parent="1" vertex="1">
          <mxGeometry x="380" y="20" width="120" height="80" as="geometry" />
        </mxCell>
        <mxCell id="7yQeqbY0_hQjCnLQt4pn-7" value="Live-Stream&lt;br&gt;Videos" style="ellipse;whiteSpace=wrap;html=1;" parent="1" vertex="1">
          <mxGeometry x="380" y="130" width="120" height="80" as="geometry" />
        </mxCell>
        <mxCell id="7yQeqbY0_hQjCnLQt4pn-8" value="Profile&lt;br&gt;Customization" style="ellipse;whiteSpace=wrap;html=1;" parent="1" vertex="1">
          <mxGeometry x="380" y="360" width="120" height="80" as="geometry" />
        </mxCell>
        <mxCell id="7yQeqbY0_hQjCnLQt4pn-11" value="Customizable&lt;br&gt;Feeds" style="ellipse;whiteSpace=wrap;html=1;" parent="1" vertex="1">
          <mxGeometry x="380" y="480" width="120" height="80" as="geometry" />
        </mxCell>
        <mxCell id="7yQeqbY0_hQjCnLQt4pn-41" style="edgeStyle=orthogonalEdgeStyle;rounded=0;orthogonalLoop=1;jettySize=auto;html=1;exitX=0;exitY=0.5;exitDx=0;exitDy=0;entryX=0;entryY=1;entryDx=0;entryDy=0;entryPerimeter=0;" parent="1" source="7yQeqbY0_hQjCnLQt4pn-12" target="7yQeqbY0_hQjCnLQt4pn-1" edge="1">
          <mxGeometry relative="1" as="geometry">
            <mxPoint x="110.00000000000011" y="280" as="targetPoint" />
          </mxGeometry>
        </mxCell>
        <mxCell id="7yQeqbY0_hQjCnLQt4pn-42" value="Community and other interactions" style="edgeLabel;html=1;align=center;verticalAlign=middle;resizable=0;points=[];" parent="7yQeqbY0_hQjCnLQt4pn-41" vertex="1" connectable="0">
          <mxGeometry x="-0.5884" y="-3" relative="1" as="geometry">
            <mxPoint as="offset" />
          </mxGeometry>
        </mxCell>
        <mxCell id="7yQeqbY0_hQjCnLQt4pn-12" value="Content&lt;br&gt;Communities" style="ellipse;whiteSpace=wrap;html=1;" parent="1" vertex="1">
          <mxGeometry x="380" y="590" width="120" height="80" as="geometry" />
        </mxCell>
        <mxCell id="7yQeqbY0_hQjCnLQt4pn-13" style="edgeStyle=orthogonalEdgeStyle;rounded=0;orthogonalLoop=1;jettySize=auto;html=1;exitX=0;exitY=0.5;exitDx=0;exitDy=0;entryX=0.25;entryY=0.1;entryDx=0;entryDy=0;entryPerimeter=0;" parent="1" source="7yQeqbY0_hQjCnLQt4pn-6" target="7yQeqbY0_hQjCnLQt4pn-1" edge="1">
          <mxGeometry relative="1" as="geometry" />
        </mxCell>
        <mxCell id="7yQeqbY0_hQjCnLQt4pn-14" value="Formatted video file" style="edgeLabel;html=1;align=center;verticalAlign=middle;resizable=0;points=[];" parent="7yQeqbY0_hQjCnLQt4pn-13" vertex="1" connectable="0">
          <mxGeometry x="-0.1042" relative="1" as="geometry">
            <mxPoint as="offset" />
          </mxGeometry>
        </mxCell>
        <mxCell id="7yQeqbY0_hQjCnLQt4pn-19" style="edgeStyle=orthogonalEdgeStyle;rounded=0;orthogonalLoop=1;jettySize=auto;html=1;exitX=0;exitY=0.5;exitDx=0;exitDy=0;entryX=0.5;entryY=0;entryDx=0;entryDy=0;entryPerimeter=0;" parent="1" source="7yQeqbY0_hQjCnLQt4pn-7" target="7yQeqbY0_hQjCnLQt4pn-1" edge="1">
          <mxGeometry relative="1" as="geometry">
            <Array as="points">
              <mxPoint x="380" y="130" />
              <mxPoint x="155" y="130" />
            </Array>
          </mxGeometry>
        </mxCell>
        <mxCell id="7yQeqbY0_hQjCnLQt4pn-21" value="Live video feed" style="edgeLabel;html=1;align=center;verticalAlign=middle;resizable=0;points=[];" parent="7yQeqbY0_hQjCnLQt4pn-19" vertex="1" connectable="0">
          <mxGeometry x="-0.1411" relative="1" as="geometry">
            <mxPoint as="offset" />
          </mxGeometry>
        </mxCell>
        <mxCell id="7yQeqbY0_hQjCnLQt4pn-23" style="edgeStyle=orthogonalEdgeStyle;rounded=0;orthogonalLoop=1;jettySize=auto;html=1;exitX=0;exitY=0.5;exitDx=0;exitDy=0;entryX=1;entryY=0.5;entryDx=0;entryDy=0;dashed=1;" parent="1" source="7yQeqbY0_hQjCnLQt4pn-22" target="7yQeqbY0_hQjCnLQt4pn-7" edge="1">
          <mxGeometry relative="1" as="geometry" />
        </mxCell>
        <mxCell id="7yQeqbY0_hQjCnLQt4pn-24" value="(Extends)&lt;br&gt;Chat uploaded&lt;br&gt;to stream" style="edgeLabel;html=1;align=center;verticalAlign=middle;resizable=0;points=[];" parent="7yQeqbY0_hQjCnLQt4pn-23" vertex="1" connectable="0">
          <mxGeometry x="0.1238" y="-3" relative="1" as="geometry">
            <mxPoint as="offset" />
          </mxGeometry>
        </mxCell>
        <mxCell id="7yQeqbY0_hQjCnLQt4pn-22" value="Live-stream&lt;br&gt;Chat" style="ellipse;whiteSpace=wrap;html=1;" parent="1" vertex="1">
          <mxGeometry x="550" y="220" width="120" height="80" as="geometry" />
        </mxCell>
        <mxCell id="7yQeqbY0_hQjCnLQt4pn-35" style="edgeStyle=orthogonalEdgeStyle;rounded=0;orthogonalLoop=1;jettySize=auto;html=1;exitX=0.5;exitY=0.5;exitDx=0;exitDy=0;exitPerimeter=0;entryX=0.069;entryY=0.232;entryDx=0;entryDy=0;entryPerimeter=0;" parent="1" source="7yQeqbY0_hQjCnLQt4pn-1" target="7yQeqbY0_hQjCnLQt4pn-11" edge="1">
          <mxGeometry relative="1" as="geometry">
            <Array as="points">
              <mxPoint x="155" y="250" />
              <mxPoint x="340" y="250" />
              <mxPoint x="340" y="499" />
            </Array>
          </mxGeometry>
        </mxCell>
        <mxCell id="7yQeqbY0_hQjCnLQt4pn-36" value="Features to customize feed" style="edgeLabel;html=1;align=center;verticalAlign=middle;resizable=0;points=[];" parent="7yQeqbY0_hQjCnLQt4pn-35" vertex="1" connectable="0">
          <mxGeometry x="-0.5839" relative="1" as="geometry">
            <mxPoint as="offset" />
          </mxGeometry>
        </mxCell>
        <mxCell id="7yQeqbY0_hQjCnLQt4pn-38" style="edgeStyle=orthogonalEdgeStyle;rounded=0;orthogonalLoop=1;jettySize=auto;html=1;exitX=1;exitY=1;exitDx=0;exitDy=0;exitPerimeter=0;entryX=0.024;entryY=0.676;entryDx=0;entryDy=0;entryPerimeter=0;startArrow=classic;startFill=1;endArrow=none;endFill=0;" parent="1" source="7yQeqbY0_hQjCnLQt4pn-1" target="7yQeqbY0_hQjCnLQt4pn-11" edge="1">
          <mxGeometry relative="1" as="geometry">
            <Array as="points">
              <mxPoint x="170" y="534" />
            </Array>
          </mxGeometry>
        </mxCell>
        <mxCell id="7yQeqbY0_hQjCnLQt4pn-39" value="Customized feed" style="edgeLabel;html=1;align=center;verticalAlign=middle;resizable=0;points=[];" parent="7yQeqbY0_hQjCnLQt4pn-38" vertex="1" connectable="0">
          <mxGeometry x="0.5528" relative="1" as="geometry">
            <mxPoint as="offset" />
          </mxGeometry>
        </mxCell>
        <mxCell id="7yQeqbY0_hQjCnLQt4pn-52" value="&lt;div style=&quot;font-size: 17px;&quot;&gt;&lt;span style=&quot;background-color: initial; font-size: 17px;&quot;&gt;Twitter+&amp;nbsp; Use Case Diagram&lt;/span&gt;&lt;/div&gt;" style="text;html=1;strokeColor=none;fillColor=none;align=left;verticalAlign=top;whiteSpace=wrap;rounded=0;fontSize=17;" parent="1" vertex="1">
          <mxGeometry x="106" width="224" height="40" as="geometry" />
        </mxCell>
      </root>
    </mxGraphModel>
  </diagram>
</mxfile>
